<?xml version="1.0" standalone="no"?>
<!DOCTYPE svg PUBLIC "-//W3C//DTD SVG 20010904//EN"
 "http://www.w3.org/TR/2001/REC-SVG-20010904/DTD/svg10.dtd">
<svg version="1.0" xmlns="http://www.w3.org/2000/svg"
 width="300.000000pt" height="300.000000pt" viewBox="0 0 300.000000 300.000000"
 preserveAspectRatio="xMidYMid meet">
<metadata>
Created by potrace 1.14, written by Peter Selinger 2001-2017
</metadata>
<g transform="translate(0.000000,300.000000) scale(0.100000,-0.100000)"
fill="#000000" stroke="none">
<path d="M0 1500 l0 -1500 1500 0 1500 0 0 1500 0 1500 -1500 0 -1500 0 0
-1500z m1688 -36 c42 -9 79 -18 81 -20 5 -4 -16 -134 -23 -141 -2 -2 -34 5
-71 16 -157 49 -265 10 -265 -95 0 -37 5 -47 38 -74 20 -17 81 -53 136 -81
157 -81 210 -144 222 -267 13 -119 -41 -216 -151 -272 -68 -35 -69 -35 -194
-34 -87 0 -138 5 -166 16 -44 17 -43 16 -29 126 4 36 8 42 22 36 9 -4 52 -16
95 -27 67 -18 84 -19 130 -8 30 6 68 24 87 40 30 24 34 34 38 87 3 55 2 61
-27 90 -16 17 -80 57 -142 90 -190 101 -236 158 -227 284 14 195 189 287 446
234z m-776 -16 l88 -21 0 -79 c0 -47 -4 -78 -10 -78 -6 0 -27 8 -48 19 -102
51 -287 55 -384 8 -72 -35 -130 -98 -158 -173 -19 -50 -21 -74 -18 -159 3 -85
8 -108 33 -158 32 -64 82 -115 147 -148 36 -19 64 -23 166 -27 l122 -4 0 121
0 121 -90 0 -90 0 0 75 0 75 175 0 174 0 -2 -252 -2 -253 -50 -13 c-73 -20
-259 -27 -343 -12 -178 30 -329 151 -380 306 -96 289 53 594 323 660 84 21
247 17 347 -8z m1552 -235 c58 -128 106 -235 106 -238 0 -3 -36 -5 -79 -5 -74
0 -80 2 -87 23 -4 12 -18 47 -31 77 l-24 55 -33 -75 -33 -75 -82 -3 c-44 -2
-81 0 -81 3 0 4 43 102 96 218 53 117 103 228 111 247 18 41 4 64 137 -227z
m-265 -398 c-10 -25 -28 -66 -39 -91 -11 -25 -20 -48 -20 -50 0 -3 45 18 100
46 l100 52 47 -38 c27 -21 52 -42 57 -46 5 -4 -80 -51 -188 -104 l-199 -97
-75 2 c-42 1 -78 4 -80 6 -2 2 42 107 99 234 l102 230 58 -50 58 -50 -20 -44z
m476 -85 c53 -118 99 -221 102 -228 4 -10 -14 -12 -83 -10 l-88 3 -74 178 -75
178 53 54 c30 30 57 52 61 47 3 -4 50 -104 104 -222z"/>
</g>
</svg>
